<svg version="1.1" xmlns="http://www.w3.org/2000/svg" xmlns:xlink="http://www.w3.org/1999/xlink" viewBox="-158,57.5,700,700" height="50" width="50"><defs><linearGradient x1="-23.20794" y1="432.78447" x2="569.06038" y2="433.45553" gradientUnits="userSpaceOnUse" id="color-1"><stop offset="0" stop-color="#c2410c"/><stop offset="1" stop-color="#c2410c"/></linearGradient></defs><g id="document" fill-rule="nonzero" stroke="#000000" stroke-width="00" stroke-linecap="butt" stroke-linejoin="miter" stroke-miterlimit="10" stroke-dasharray="" stroke-dashoffset="0" font-family="none" font-weight="none" font-size="none" text-anchor="none" style="mix-blend-mode: normal" fill="none"><rect x="-158" y="41.07143" transform="scale(1,1.4)" width="700" height="500" id="Shape 1 1" vector-effect="non-scaling-stroke"/></g><g fill="none" fill-rule="nonzero" stroke="" stroke-width="" stroke-linecap="none" stroke-linejoin="none" stroke-miterlimit="10" stroke-dasharray="" stroke-dashoffset="0" font-family="none" font-weight="none" font-size="none" text-anchor="none" style="mix-blend-mode: normal"><g><g id="stage"><g id="Image 1" fill="none" stroke="none" stroke-width="1" stroke-linecap="butt" stroke-linejoin="miter" opacity="0.3" visibility="hidden"/><g id="Vector 1" stroke-linecap="round" stroke-linejoin="round"><path d="M-97.86634,290.91484c11.71873,-38.17348 35.69587,-59.90497 62.75586,-76.31766c17.07883,-6.74128 35.53241,-10.42119 54.78543,-10.42119c38.86026,0 74.84978,14.45349 102.46562,39.35082c13.24033,-18.31036 33.43646,-31.57337 56.88297,-36.20696c5.97845,-1.18148 12.16823,-1.80192 18.5079,-1.80192c2.54373,0 5.06332,0.09989 7.55481,0.29582h241.59533c18.68167,0 37.36335,18.68167 37.36335,37.36335v306.24112c0,7.62909 -7.62909,15.25818 -15.25818,15.25818h-305.49174l-46.14761,46.14761l-67.81494,-67.81494l-5.52027,-5.52027l-86.98274,-86.98274c-34.83349,-31.34978 -56.87437,-78.57171 -56.87437,-131.23162c0,-9.66141 0.57057,-17.34276 2.17858,-28.3596z" id="Path 1" fill="url(#color-1)" stroke="#000000" stroke-width="10"/><path d="M223.71918,315.02536h220.02381" id="Path 1" fill="#eff6ff" stroke="#eff6ff" stroke-width="25"/><path d="M224.32563,385.75704h228.67641" id="Path 1" fill="#eff6ff" stroke="#eff6ff" stroke-width="20"/><path d="M226.28354,455.66044h228.49439" id="Path 1" fill="#eff6ff" stroke="#eff6ff" stroke-width="15"/>
					</g><g id="Layer3 1" fill-opacity="0" fill="#000000" stroke="#000000" stroke-width="1" stroke-linecap="round" stroke-linejoin="round" visibility="hidden"><path d="M-87.86555,381.87034c0,-83.59436 61.41567,-151.36098 137.17574,-151.36098c75.76007,0 137.17574,67.76662 137.17574,151.36098c0,83.59436 -61.41567,151.36098 -137.17574,151.36098c-75.76007,0 -137.17574,-67.76662 -137.17574,-151.36098z" id="Path 1"/><path d="M-75.23246,349.09857c0,-94.5628 69.49982,-171.2211 155.2322,-171.2211c85.73238,0 155.2322,76.6583 155.2322,171.2211c0,94.5628 -69.49982,171.2211 -155.2322,171.2211c-85.73238,0 -155.2322,-76.6583 -155.2322,-171.2211z" id="Path 1"/><path d="M140.19712,370.16442c0,-83.59436 61.41567,-151.36098 137.17574,-151.36098c75.76007,0 137.17574,67.76662 137.17574,151.36098c0,83.59436 -61.41567,151.36098 -137.17574,151.36098c-75.76007,0 -137.17574,-67.76662 -137.17574,-151.36098z" id="Path 1"/><path d="M-76.21875,424.7919l263.31337,263.31337" id="Path 1"/><path d="M120.39022,699.14192l316.79902,-316.79902" id="Path 1"/><path d="M206.10772,599.4157h266.28165" id="Path 1"/><path d="M197.75644,246.89156h289.73934" id="Path 1"/><path d="M464.26433,246.89156v376.57902" id="Path 1"/></g></g></g></g></svg>