<svg xmlns="http://www.w3.org/2000/svg" xmlns:v="https://svgstorm.com"
viewBox = "0 0 1536 1024"
width="1536"
height="1024">
<g fill="None" fill-opacity="0.0" stroke="#000000" stroke-opacity="0.00" stroke-width="0.3"><path d="
M 0.00 1024.00 
L 1536.00 1024.00
L 1536.00 0.00
L 0.00 0.00
L 0.00 1024.00
M 678.00 560.00 
C 633.47 601.85 592.74 649.50 550.00 692.00
C 552.97 701.28 551.84 712.08 541.92 716.92 C 532.00 721.75 522.17 712.84 517.00 706.00
C 510.47 719.74 505.15 737.12 497.08 750.08 C 489.00 763.03 488.42 783.51 473.78 790.78 C 459.13 798.04 440.92 800.58 425.32 806.32 C 409.72 812.07 392.33 816.25 376.32 821.32 C 360.31 826.39 342.70 834.99 326.00 832.00
C 321.89 826.27 317.73 819.51 320.33 812.33 C 322.93 805.14 324.76 798.20 326.98 790.98 C 329.20 783.75 331.68 776.96 333.78 769.78 C 335.87 762.60 338.12 755.43 340.32 748.32 C 342.52 741.22 344.91 734.12 346.98 726.98 C 349.04 719.83 351.68 712.79 353.78 705.78 C 355.88 698.76 358.16 690.88 359.98 683.98 C 361.79 677.08 365.67 670.65 371.08 667.08 C 376.49 663.51 386.58 660.29 385.00 656.00
C 395.59 656.09 404.52 646.91 414.23 642.23 C 423.94 637.55 433.11 630.24 443.00 626.00
C 436.07 618.42 426.57 610.97 429.93 599.93 C 433.28 588.88 446.09 583.42 456.00 590.00
C 497.69 545.68 538.51 501.24 580.00 458.00
C 560.51 446.57 570.45 427.28 582.90 415.90 C 595.36 404.53 605.73 391.61 617.75 379.75 C 629.77 367.89 640.34 354.78 652.25 343.25 C 664.16 331.71 674.92 318.53 687.25 306.25 C 699.58 293.96 710.01 281.56 721.75 269.75 C 733.49 257.95 743.85 245.01 756.25 233.25 C 768.64 221.48 778.70 207.43 791.25 196.25 C 803.80 185.06 812.14 169.45 825.75 159.75 C 839.36 150.05 850.30 140.78 862.70 127.70 C 875.10 114.61 891.05 105.70 908.67 101.67 C 926.29 97.65 949.74 98.90 966.23 107.77 C 982.72 116.64 993.09 126.51 1001.92 143.08 C 1010.76 159.64 1012.13 179.10 1011.00 197.00 C 1009.87 214.90 1000.48 234.11 990.75 248.75 C 981.02 263.39 965.38 272.35 959.00 288.00 C 952.62 303.65 938.43 315.00 927.30 327.30 C 916.17 339.59 903.38 352.13 892.25 364.25 C 881.12 376.37 869.20 388.69 857.75 400.75 C 846.31 412.82 834.86 425.27 823.25 437.25 C 811.64 449.23 799.42 462.71 788.25 474.25 C 777.08 485.78 766.31 497.41 754.75 509.75 C 743.19 522.10 731.31 533.99 720.25 546.25 C 709.19 558.51 692.21 578.30 678.00 560.00
M 676.00 813.00 
C 680.32 815.74 673.10 814.88 671.00 815.00
C 677.95 811.71 662.85 813.15 656.00 813.00 C 649.15 812.85 639.50 813.23 632.00 813.00 C 624.50 812.77 613.81 812.97 606.00 813.00 C 598.19 813.03 587.55 812.68 580.00 813.00 C 572.45 813.32 564.95 812.17 560.25 806.75 C 555.55 801.34 555.08 795.61 557.93 788.93 C 560.77 782.24 566.36 778.69 574.00 779.00 C 581.64 779.32 591.72 778.75 600.00 779.00 C 608.28 779.25 617.33 778.65 626.00 779.00 C 634.67 779.35 641.74 778.37 648.30 778.72 C 654.87 779.06 666.27 779.03 674.00 779.00 C 681.73 778.97 691.76 779.01 700.00 779.00 C 708.24 778.99 717.53 779.01 726.00 779.00 C 734.47 778.99 743.43 779.00 752.00 779.00 C 760.57 779.00 769.39 779.00 778.00 779.00 C 786.61 779.00 795.38 779.00 804.00 779.00 C 812.62 779.00 821.41 778.99 830.00 779.00 C 838.59 779.01 847.48 778.99 856.00 779.00 C 864.52 779.01 873.65 778.97 882.00 779.00 C 890.35 779.03 900.04 778.93 908.00 779.00 C 915.96 779.07 924.85 777.57 930.70 782.30 C 936.54 787.04 938.34 794.54 936.02 801.02 C 933.71 807.51 929.51 812.27 921.93 812.93 C 914.35 813.58 904.10 812.72 896.00 813.00 C 887.90 813.28 878.25 812.79 870.00 813.00 C 861.75 813.21 852.12 812.73 844.00 813.00 C 835.88 813.27 828.61 812.93 820.00 813.00 C 811.39 813.07 802.64 812.97 794.00 813.00 C 785.36 813.03 776.67 812.98 768.00 813.00 C 759.33 813.02 750.69 812.99 742.00 813.00 C 733.31 813.01 724.72 812.99 716.00 813.00 C 707.28 813.01 700.73 813.23 695.87 813.08 C 691.01 812.93 683.39 814.15 676.00 813.00 Z"/>
</g>
<g fill="None" fill-opacity="0.0" stroke="#00B0FE" stroke-opacity="0.97" stroke-width="0.3"><path d="
M 678.00 560.00 
C 692.21 578.30 709.19 558.51 720.25 546.25 C 731.31 533.99 743.19 522.10 754.75 509.75 C 766.31 497.41 777.08 485.78 788.25 474.25 C 799.42 462.71 811.64 449.23 823.25 437.25 C 834.86 425.27 846.31 412.82 857.75 400.75 C 869.20 388.69 881.12 376.37 892.25 364.25 C 903.38 352.13 916.17 339.59 927.30 327.30 C 938.43 315.00 952.62 303.65 959.00 288.00 C 965.38 272.35 981.02 263.39 990.75 248.75 C 1000.48 234.11 1009.87 214.90 1011.00 197.00 C 1012.13 179.10 1010.76 159.64 1001.92 143.08 C 993.09 126.51 982.72 116.64 966.23 107.77 C 949.74 98.90 926.29 97.65 908.67 101.67 C 891.05 105.70 875.10 114.61 862.70 127.70 C 850.30 140.78 839.36 150.05 825.75 159.75 C 812.14 169.45 803.80 185.06 791.25 196.25 C 778.70 207.43 768.64 221.48 756.25 233.25 C 743.85 245.01 733.49 257.95 721.75 269.75 C 710.01 281.56 699.58 293.96 687.25 306.25 C 674.92 318.53 664.16 331.71 652.25 343.25 C 640.34 354.78 629.77 367.89 617.75 379.75 C 605.73 391.61 595.36 404.53 582.90 415.90 C 570.45 427.28 560.51 446.57 580.00 458.00
C 538.51 501.24 497.69 545.68 456.00 590.00
C 446.09 583.42 433.28 588.88 429.93 599.93 C 426.57 610.97 436.07 618.42 443.00 626.00
C 433.11 630.24 423.94 637.55 414.23 642.23 C 404.52 646.91 395.59 656.09 385.00 656.00
C 386.58 660.29 376.49 663.51 371.08 667.08 C 365.67 670.65 361.79 677.08 359.98 683.98 C 358.16 690.88 355.88 698.76 353.78 705.78 C 351.68 712.79 349.04 719.83 346.98 726.98 C 344.91 734.12 342.52 741.22 340.32 748.32 C 338.12 755.43 335.87 762.60 333.78 769.78 C 331.68 776.96 329.20 783.75 326.98 790.98 C 324.76 798.20 322.93 805.14 320.33 812.33 C 317.73 819.51 321.89 826.27 326.00 832.00
C 342.70 834.99 360.31 826.39 376.32 821.32 C 392.33 816.25 409.72 812.07 425.32 806.32 C 440.92 800.58 459.13 798.04 473.78 790.78 C 488.42 783.51 489.00 763.03 497.08 750.08 C 505.15 737.12 510.47 719.74 517.00 706.00
C 522.17 712.84 532.00 721.75 541.92 716.92 C 551.84 712.08 552.97 701.28 550.00 692.00
C 592.74 649.50 633.47 601.85 678.00 560.00
M 863.00 178.00 
C 868.24 168.20 876.35 161.22 884.75 152.75 C 893.16 144.29 903.25 137.93 915.02 135.02 C 926.80 132.12 942.28 133.59 953.23 139.77 C 964.18 145.95 970.11 154.47 974.98 166.02 C 979.84 177.58 979.25 194.90 975.22 206.22 C 971.20 217.55 965.94 227.75 958.25 236.25 C 950.56 244.75 943.19 258.78 934.75 249.25 C 926.32 239.72 919.53 234.41 911.25 225.75 C 902.97 217.09 895.29 209.78 887.30 201.70 C 879.31 193.63 872.36 184.66 863.00 178.00
M 837.00 199.00 
C 843.02 207.82 851.95 214.38 858.92 222.08 C 865.88 229.79 873.73 237.10 881.25 244.75 C 888.77 252.41 896.52 260.21 904.25 267.75 C 911.97 275.29 923.64 283.04 914.25 291.25 C 904.86 299.46 900.58 307.26 892.08 315.08 C 883.58 322.91 878.29 330.64 870.25 338.25 C 862.20 345.86 855.65 353.77 847.75 361.75 C 839.86 369.73 833.20 377.01 825.75 384.75 C 818.31 392.49 810.87 399.85 803.75 407.75 C 796.63 415.66 788.67 423.80 781.70 431.70 C 774.72 439.59 766.34 446.44 759.30 454.30 C 752.25 462.16 744.64 470.45 737.25 478.25 C 729.86 486.05 722.75 493.45 715.25 501.25 C 707.74 509.05 699.99 516.86 693.00 525.00
C 663.66 497.94 637.30 467.31 609.00 439.00
C 684.23 357.88 761.44 277.47 837.00 199.00
M 652.00 534.00 
C 613.31 578.61 570.75 619.18 531.00 664.00
C 513.68 648.68 498.82 628.79 481.00 613.00
C 521.29 569.08 562.15 527.34 602.00 483.00
C 618.79 499.22 634.74 517.71 652.00 534.00
M 467.00 650.00 
C 475.82 657.55 478.83 664.87 487.75 672.25 C 496.68 679.62 490.24 690.84 485.07 700.07 C 479.91 709.31 477.29 720.77 471.68 729.68 C 466.07 738.58 464.84 752.19 458.08 760.08 C 451.31 767.96 435.78 766.61 426.32 771.32 C 416.86 776.04 404.12 777.59 393.92 781.92 C 383.73 786.26 370.56 788.14 360.00 792.00
C 364.73 776.64 369.41 759.81 374.78 744.78 C 380.14 729.74 383.27 711.91 389.78 697.78 C 396.29 683.65 414.92 681.74 427.08 673.08 C 439.23 664.41 454.45 657.93 467.00 650.00 Z"/>
</g>
<g fill="None" fill-opacity="0.0" stroke="#000000" stroke-opacity="0.00" stroke-width="0.3"><path d="
M 863.00 178.00 
C 872.36 184.66 879.31 193.63 887.30 201.70 C 895.29 209.78 902.97 217.09 911.25 225.75 C 919.53 234.41 926.32 239.72 934.75 249.25 C 943.19 258.78 950.56 244.75 958.25 236.25 C 965.94 227.75 971.20 217.55 975.22 206.22 C 979.25 194.90 979.84 177.58 974.98 166.02 C 970.11 154.47 964.18 145.95 953.23 139.77 C 942.28 133.59 926.80 132.12 915.02 135.02 C 903.25 137.93 893.16 144.29 884.75 152.75 C 876.35 161.22 868.24 168.20 863.00 178.00 Z"/>
</g>
<g fill="None" fill-opacity="0.0" stroke="#000000" stroke-opacity="0.00" stroke-width="0.3"><path d="
M 837.00 199.00 
C 761.44 277.47 684.23 357.88 609.00 439.00
C 637.30 467.31 663.66 497.94 693.00 525.00
C 699.99 516.86 707.74 509.05 715.25 501.25 C 722.75 493.45 729.86 486.05 737.25 478.25 C 744.64 470.45 752.25 462.16 759.30 454.30 C 766.34 446.44 774.72 439.59 781.70 431.70 C 788.67 423.80 796.63 415.66 803.75 407.75 C 810.87 399.85 818.31 392.49 825.75 384.75 C 833.20 377.01 839.86 369.73 847.75 361.75 C 855.65 353.77 862.20 345.86 870.25 338.25 C 878.29 330.64 883.58 322.91 892.08 315.08 C 900.58 307.26 904.86 299.46 914.25 291.25 C 923.64 283.04 911.97 275.29 904.25 267.75 C 896.52 260.21 888.77 252.41 881.25 244.75 C 873.73 237.10 865.88 229.79 858.92 222.08 C 851.95 214.38 843.02 207.82 837.00 199.00 Z"/>
</g>
<g fill="None" fill-opacity="0.0" stroke="#000000" stroke-opacity="0.00" stroke-width="0.3"><path d="
M 652.00 534.00 
C 634.74 517.71 618.79 499.22 602.00 483.00
C 562.15 527.34 521.29 569.08 481.00 613.00
C 498.82 628.79 513.68 648.68 531.00 664.00
C 570.75 619.18 613.31 578.61 652.00 534.00 Z"/>
</g>
<g fill="None" fill-opacity="0.0" stroke="#000000" stroke-opacity="0.00" stroke-width="0.3"><path d="
M 467.00 650.00 
C 454.45 657.93 439.23 664.41 427.08 673.08 C 414.92 681.74 396.29 683.65 389.78 697.78 C 383.27 711.91 380.14 729.74 374.78 744.78 C 369.41 759.81 364.73 776.64 360.00 792.00
C 370.56 788.14 383.73 786.26 393.92 781.92 C 404.12 777.59 416.86 776.04 426.32 771.32 C 435.78 766.61 451.31 767.96 458.08 760.08 C 464.84 752.19 466.07 738.58 471.68 729.68 C 477.29 720.77 479.91 709.31 485.07 700.07 C 490.24 690.84 496.68 679.62 487.75 672.25 C 478.83 664.87 475.82 657.55 467.00 650.00
M 425.00 705.00 
C 449.15 706.20 449.42 745.61 423.75 745.20 C 398.09 744.78 399.10 703.71 425.00 705.00 Z"/>
</g>
<g fill="None" fill-opacity="0.0" stroke="#00B0FE" stroke-opacity="0.95" stroke-width="0.3"><path d="
M 425.00 705.00 
C 399.10 703.71 398.09 744.78 423.75 745.20 C 449.42 745.61 449.15 706.20 425.00 705.00 Z"/>
</g>
<g fill="None" fill-opacity="0.0" stroke="#00AFFE" stroke-opacity="0.96" stroke-width="0.3"><path d="
M 676.00 813.00 
C 683.39 814.15 691.01 812.93 695.87 813.08 C 700.73 813.23 707.28 813.01 716.00 813.00 C 724.72 812.99 733.31 813.01 742.00 813.00 C 750.69 812.99 759.33 813.02 768.00 813.00 C 776.67 812.98 785.36 813.03 794.00 813.00 C 802.64 812.97 811.39 813.07 820.00 813.00 C 828.61 812.93 835.88 813.27 844.00 813.00 C 852.12 812.73 861.75 813.21 870.00 813.00 C 878.25 812.79 887.90 813.28 896.00 813.00 C 904.10 812.72 914.35 813.58 921.93 812.93 C 929.51 812.27 933.71 807.51 936.02 801.02 C 938.34 794.54 936.54 787.04 930.70 782.30 C 924.85 777.57 915.96 779.07 908.00 779.00 C 900.04 778.93 890.35 779.03 882.00 779.00 C 873.65 778.97 864.52 779.01 856.00 779.00 C 847.48 778.99 838.59 779.01 830.00 779.00 C 821.41 778.99 812.62 779.00 804.00 779.00 C 795.38 779.00 786.61 779.00 778.00 779.00 C 769.39 779.00 760.57 779.00 752.00 779.00 C 743.43 779.00 734.47 778.99 726.00 779.00 C 717.53 779.01 708.24 778.99 700.00 779.00 C 691.76 779.01 681.73 778.97 674.00 779.00 C 666.27 779.03 654.87 779.06 648.30 778.72 C 641.74 778.37 634.67 779.35 626.00 779.00 C 617.33 778.65 608.28 779.25 600.00 779.00 C 591.72 778.75 581.64 779.32 574.00 779.00 C 566.36 778.69 560.77 782.24 557.93 788.93 C 555.08 795.61 555.55 801.34 560.25 806.75 C 564.95 812.17 572.45 813.32 580.00 813.00 C 587.55 812.68 598.19 813.03 606.00 813.00 C 613.81 812.97 624.50 812.77 632.00 813.00 C 639.50 813.23 649.15 812.85 656.00 813.00 C 662.85 813.15 677.95 811.71 671.00 815.00
C 673.10 814.88 680.32 815.74 676.00 813.00 Z"/>
</g>
<g fill="#000000" fill-opacity="0.00" stroke="None">
<path d="
M 0.00 1024.00 
L 1536.00 1024.00
L 1536.00 0.00
L 0.00 0.00
L 0.00 1024.00
M 678.00 560.00 
C 633.47 601.85 592.74 649.50 550.00 692.00
C 552.97 701.28 551.84 712.08 541.92 716.92 C 532.00 721.75 522.17 712.84 517.00 706.00
C 510.47 719.74 505.15 737.12 497.08 750.08 C 489.00 763.03 488.42 783.51 473.78 790.78 C 459.13 798.04 440.92 800.58 425.32 806.32 C 409.72 812.07 392.33 816.25 376.32 821.32 C 360.31 826.39 342.70 834.99 326.00 832.00
C 321.89 826.27 317.73 819.51 320.33 812.33 C 322.93 805.14 324.76 798.20 326.98 790.98 C 329.20 783.75 331.68 776.96 333.78 769.78 C 335.87 762.60 338.12 755.43 340.32 748.32 C 342.52 741.22 344.91 734.12 346.98 726.98 C 349.04 719.83 351.68 712.79 353.78 705.78 C 355.88 698.76 358.16 690.88 359.98 683.98 C 361.79 677.08 365.67 670.65 371.08 667.08 C 376.49 663.51 386.58 660.29 385.00 656.00
C 395.59 656.09 404.52 646.91 414.23 642.23 C 423.94 637.55 433.11 630.24 443.00 626.00
C 436.07 618.42 426.57 610.97 429.93 599.93 C 433.28 588.88 446.09 583.42 456.00 590.00
C 497.69 545.68 538.51 501.24 580.00 458.00
C 560.51 446.57 570.45 427.28 582.90 415.90 C 595.36 404.53 605.73 391.61 617.75 379.75 C 629.77 367.89 640.34 354.78 652.25 343.25 C 664.16 331.71 674.92 318.53 687.25 306.25 C 699.58 293.96 710.01 281.56 721.75 269.75 C 733.49 257.95 743.85 245.01 756.25 233.25 C 768.64 221.48 778.70 207.43 791.25 196.25 C 803.80 185.06 812.14 169.45 825.75 159.75 C 839.36 150.05 850.30 140.78 862.70 127.70 C 875.10 114.61 891.05 105.70 908.67 101.67 C 926.29 97.65 949.74 98.90 966.23 107.77 C 982.72 116.64 993.09 126.51 1001.92 143.08 C 1010.76 159.64 1012.13 179.10 1011.00 197.00 C 1009.87 214.90 1000.48 234.11 990.75 248.75 C 981.02 263.39 965.38 272.35 959.00 288.00 C 952.62 303.65 938.43 315.00 927.30 327.30 C 916.17 339.59 903.38 352.13 892.25 364.25 C 881.12 376.37 869.20 388.69 857.75 400.75 C 846.31 412.82 834.86 425.27 823.25 437.25 C 811.64 449.23 799.42 462.71 788.25 474.25 C 777.08 485.78 766.31 497.41 754.75 509.75 C 743.19 522.10 731.31 533.99 720.25 546.25 C 709.19 558.51 692.21 578.30 678.00 560.00
M 676.00 813.00 
C 680.32 815.74 673.10 814.88 671.00 815.00
C 677.95 811.71 662.85 813.15 656.00 813.00 C 649.15 812.85 639.50 813.23 632.00 813.00 C 624.50 812.77 613.81 812.97 606.00 813.00 C 598.19 813.03 587.55 812.68 580.00 813.00 C 572.45 813.32 564.95 812.17 560.25 806.75 C 555.55 801.34 555.08 795.61 557.93 788.93 C 560.77 782.24 566.36 778.69 574.00 779.00 C 581.64 779.32 591.72 778.75 600.00 779.00 C 608.28 779.25 617.33 778.65 626.00 779.00 C 634.67 779.35 641.74 778.37 648.30 778.72 C 654.87 779.06 666.27 779.03 674.00 779.00 C 681.73 778.97 691.76 779.01 700.00 779.00 C 708.24 778.99 717.53 779.01 726.00 779.00 C 734.47 778.99 743.43 779.00 752.00 779.00 C 760.57 779.00 769.39 779.00 778.00 779.00 C 786.61 779.00 795.38 779.00 804.00 779.00 C 812.62 779.00 821.41 778.99 830.00 779.00 C 838.59 779.01 847.48 778.99 856.00 779.00 C 864.52 779.01 873.65 778.97 882.00 779.00 C 890.35 779.03 900.04 778.93 908.00 779.00 C 915.96 779.07 924.85 777.57 930.70 782.30 C 936.54 787.04 938.34 794.54 936.02 801.02 C 933.71 807.51 929.51 812.27 921.93 812.93 C 914.35 813.58 904.10 812.72 896.00 813.00 C 887.90 813.28 878.25 812.79 870.00 813.00 C 861.75 813.21 852.12 812.73 844.00 813.00 C 835.88 813.27 828.61 812.93 820.00 813.00 C 811.39 813.07 802.64 812.97 794.00 813.00 C 785.36 813.03 776.67 812.98 768.00 813.00 C 759.33 813.02 750.69 812.99 742.00 813.00 C 733.31 813.01 724.72 812.99 716.00 813.00 C 707.28 813.01 700.73 813.23 695.87 813.08 C 691.01 812.93 683.39 814.15 676.00 813.00 Z"/>
</g>
<g fill="#00B0FE" fill-opacity="0.97" stroke="None">
<path d="
M 678.00 560.00 
C 692.21 578.30 709.19 558.51 720.25 546.25 C 731.31 533.99 743.19 522.10 754.75 509.75 C 766.31 497.41 777.08 485.78 788.25 474.25 C 799.42 462.71 811.64 449.23 823.25 437.25 C 834.86 425.27 846.31 412.82 857.75 400.75 C 869.20 388.69 881.12 376.37 892.25 364.25 C 903.38 352.13 916.17 339.59 927.30 327.30 C 938.43 315.00 952.62 303.65 959.00 288.00 C 965.38 272.35 981.02 263.39 990.75 248.75 C 1000.48 234.11 1009.87 214.90 1011.00 197.00 C 1012.13 179.10 1010.76 159.64 1001.92 143.08 C 993.09 126.51 982.72 116.64 966.23 107.77 C 949.74 98.90 926.29 97.65 908.67 101.67 C 891.05 105.70 875.10 114.61 862.70 127.70 C 850.30 140.78 839.36 150.05 825.75 159.75 C 812.14 169.45 803.80 185.06 791.25 196.25 C 778.70 207.43 768.64 221.48 756.25 233.25 C 743.85 245.01 733.49 257.95 721.75 269.75 C 710.01 281.56 699.58 293.96 687.25 306.25 C 674.92 318.53 664.16 331.71 652.25 343.25 C 640.34 354.78 629.77 367.89 617.75 379.75 C 605.73 391.61 595.36 404.53 582.90 415.90 C 570.45 427.28 560.51 446.57 580.00 458.00
C 538.51 501.24 497.69 545.68 456.00 590.00
C 446.09 583.42 433.28 588.88 429.93 599.93 C 426.57 610.97 436.07 618.42 443.00 626.00
C 433.11 630.24 423.94 637.55 414.23 642.23 C 404.52 646.91 395.59 656.09 385.00 656.00
C 386.58 660.29 376.49 663.51 371.08 667.08 C 365.67 670.65 361.79 677.08 359.98 683.98 C 358.16 690.88 355.88 698.76 353.78 705.78 C 351.68 712.79 349.04 719.83 346.98 726.98 C 344.91 734.12 342.52 741.22 340.32 748.32 C 338.12 755.43 335.87 762.60 333.78 769.78 C 331.68 776.96 329.20 783.75 326.98 790.98 C 324.76 798.20 322.93 805.14 320.33 812.33 C 317.73 819.51 321.89 826.27 326.00 832.00
C 342.70 834.99 360.31 826.39 376.32 821.32 C 392.33 816.25 409.72 812.07 425.32 806.32 C 440.92 800.58 459.13 798.04 473.78 790.78 C 488.42 783.51 489.00 763.03 497.08 750.08 C 505.15 737.12 510.47 719.74 517.00 706.00
C 522.17 712.84 532.00 721.75 541.92 716.92 C 551.84 712.08 552.97 701.28 550.00 692.00
C 592.74 649.50 633.47 601.85 678.00 560.00
M 863.00 178.00 
C 868.24 168.20 876.35 161.22 884.75 152.75 C 893.16 144.29 903.25 137.93 915.02 135.02 C 926.80 132.12 942.28 133.59 953.23 139.77 C 964.18 145.95 970.11 154.47 974.98 166.02 C 979.84 177.58 979.25 194.90 975.22 206.22 C 971.20 217.55 965.94 227.75 958.25 236.25 C 950.56 244.75 943.19 258.78 934.75 249.25 C 926.32 239.72 919.53 234.41 911.25 225.75 C 902.97 217.09 895.29 209.78 887.30 201.70 C 879.31 193.63 872.36 184.66 863.00 178.00
M 837.00 199.00 
C 843.02 207.82 851.95 214.38 858.92 222.08 C 865.88 229.79 873.73 237.10 881.25 244.75 C 888.77 252.41 896.52 260.21 904.25 267.75 C 911.97 275.29 923.64 283.04 914.25 291.25 C 904.86 299.46 900.58 307.26 892.08 315.08 C 883.58 322.91 878.29 330.64 870.25 338.25 C 862.20 345.86 855.65 353.77 847.75 361.75 C 839.86 369.73 833.20 377.01 825.75 384.75 C 818.31 392.49 810.87 399.85 803.75 407.75 C 796.63 415.66 788.67 423.80 781.70 431.70 C 774.72 439.59 766.34 446.44 759.30 454.30 C 752.25 462.16 744.64 470.45 737.25 478.25 C 729.86 486.05 722.75 493.45 715.25 501.25 C 707.74 509.05 699.99 516.86 693.00 525.00
C 663.66 497.94 637.30 467.31 609.00 439.00
C 684.23 357.88 761.44 277.47 837.00 199.00
M 652.00 534.00 
C 613.31 578.61 570.75 619.18 531.00 664.00
C 513.68 648.68 498.82 628.79 481.00 613.00
C 521.29 569.08 562.15 527.34 602.00 483.00
C 618.79 499.22 634.74 517.71 652.00 534.00
M 467.00 650.00 
C 475.82 657.55 478.83 664.87 487.75 672.25 C 496.68 679.62 490.24 690.84 485.07 700.07 C 479.91 709.31 477.29 720.77 471.68 729.68 C 466.07 738.58 464.84 752.19 458.08 760.08 C 451.31 767.96 435.78 766.61 426.32 771.32 C 416.86 776.04 404.12 777.59 393.92 781.92 C 383.73 786.26 370.56 788.14 360.00 792.00
C 364.73 776.64 369.41 759.81 374.78 744.78 C 380.14 729.74 383.27 711.91 389.78 697.78 C 396.29 683.65 414.92 681.74 427.08 673.08 C 439.23 664.41 454.45 657.93 467.00 650.00 Z"/>
</g>
<g fill="#000000" fill-opacity="0.00" stroke="None">
<path d="
M 863.00 178.00 
C 872.36 184.66 879.31 193.63 887.30 201.70 C 895.29 209.78 902.97 217.09 911.25 225.75 C 919.53 234.41 926.32 239.72 934.75 249.25 C 943.19 258.78 950.56 244.75 958.25 236.25 C 965.94 227.75 971.20 217.55 975.22 206.22 C 979.25 194.90 979.84 177.58 974.98 166.02 C 970.11 154.47 964.18 145.95 953.23 139.77 C 942.28 133.59 926.80 132.12 915.02 135.02 C 903.25 137.93 893.16 144.29 884.75 152.75 C 876.35 161.22 868.24 168.20 863.00 178.00 Z"/>
</g>
<g fill="#000000" fill-opacity="0.00" stroke="None">
<path d="
M 837.00 199.00 
C 761.44 277.47 684.23 357.88 609.00 439.00
C 637.30 467.31 663.66 497.94 693.00 525.00
C 699.99 516.86 707.74 509.05 715.25 501.25 C 722.75 493.45 729.86 486.05 737.25 478.25 C 744.64 470.45 752.25 462.16 759.30 454.30 C 766.34 446.44 774.72 439.59 781.70 431.70 C 788.67 423.80 796.63 415.66 803.75 407.75 C 810.87 399.85 818.31 392.49 825.75 384.75 C 833.20 377.01 839.86 369.73 847.75 361.75 C 855.65 353.77 862.20 345.86 870.25 338.25 C 878.29 330.64 883.58 322.91 892.08 315.08 C 900.58 307.26 904.86 299.46 914.25 291.25 C 923.64 283.04 911.97 275.29 904.25 267.75 C 896.52 260.21 888.77 252.41 881.25 244.75 C 873.73 237.10 865.88 229.79 858.92 222.08 C 851.95 214.38 843.02 207.82 837.00 199.00 Z"/>
</g>
<g fill="#000000" fill-opacity="0.00" stroke="None">
<path d="
M 652.00 534.00 
C 634.74 517.71 618.79 499.22 602.00 483.00
C 562.15 527.34 521.29 569.08 481.00 613.00
C 498.82 628.79 513.68 648.68 531.00 664.00
C 570.75 619.18 613.31 578.61 652.00 534.00 Z"/>
</g>
<g fill="#000000" fill-opacity="0.00" stroke="None">
<path d="
M 467.00 650.00 
C 454.45 657.93 439.23 664.41 427.08 673.08 C 414.92 681.74 396.29 683.65 389.78 697.78 C 383.27 711.91 380.14 729.74 374.78 744.78 C 369.41 759.81 364.73 776.64 360.00 792.00
C 370.56 788.14 383.73 786.26 393.92 781.92 C 404.12 777.59 416.86 776.04 426.32 771.32 C 435.78 766.61 451.31 767.96 458.08 760.08 C 464.84 752.19 466.07 738.58 471.68 729.68 C 477.29 720.77 479.91 709.31 485.07 700.07 C 490.24 690.84 496.68 679.62 487.75 672.25 C 478.83 664.87 475.82 657.55 467.00 650.00
M 425.00 705.00 
C 449.15 706.20 449.42 745.61 423.75 745.20 C 398.09 744.78 399.10 703.71 425.00 705.00 Z"/>
</g>
<g fill="#00B0FE" fill-opacity="0.95" stroke="None">
<path d="
M 425.00 705.00 
C 399.10 703.71 398.09 744.78 423.75 745.20 C 449.42 745.61 449.15 706.20 425.00 705.00 Z"/>
</g>
<g fill="#00AFFE" fill-opacity="0.96" stroke="None">
<path d="
M 676.00 813.00 
C 683.39 814.15 691.01 812.93 695.87 813.08 C 700.73 813.23 707.28 813.01 716.00 813.00 C 724.72 812.99 733.31 813.01 742.00 813.00 C 750.69 812.99 759.33 813.02 768.00 813.00 C 776.67 812.98 785.36 813.03 794.00 813.00 C 802.64 812.97 811.39 813.07 820.00 813.00 C 828.61 812.93 835.88 813.27 844.00 813.00 C 852.12 812.73 861.75 813.21 870.00 813.00 C 878.25 812.79 887.90 813.28 896.00 813.00 C 904.10 812.72 914.35 813.58 921.93 812.93 C 929.51 812.27 933.71 807.51 936.02 801.02 C 938.34 794.54 936.54 787.04 930.70 782.30 C 924.85 777.57 915.96 779.07 908.00 779.00 C 900.04 778.93 890.35 779.03 882.00 779.00 C 873.65 778.97 864.52 779.01 856.00 779.00 C 847.48 778.99 838.59 779.01 830.00 779.00 C 821.41 778.99 812.62 779.00 804.00 779.00 C 795.38 779.00 786.61 779.00 778.00 779.00 C 769.39 779.00 760.57 779.00 752.00 779.00 C 743.43 779.00 734.47 778.99 726.00 779.00 C 717.53 779.01 708.24 778.99 700.00 779.00 C 691.76 779.01 681.73 778.97 674.00 779.00 C 666.27 779.03 654.87 779.06 648.30 778.72 C 641.74 778.37 634.67 779.35 626.00 779.00 C 617.33 778.65 608.28 779.25 600.00 779.00 C 591.72 778.75 581.64 779.32 574.00 779.00 C 566.36 778.69 560.77 782.24 557.93 788.93 C 555.08 795.61 555.55 801.34 560.25 806.75 C 564.95 812.17 572.45 813.32 580.00 813.00 C 587.55 812.68 598.19 813.03 606.00 813.00 C 613.81 812.97 624.50 812.77 632.00 813.00 C 639.50 813.23 649.15 812.85 656.00 813.00 C 662.85 813.15 677.95 811.71 671.00 815.00
C 673.10 814.88 680.32 815.74 676.00 813.00 Z"/>
</g>
</svg>